<?xml version="1.0" standalone="no"?>
<!DOCTYPE svg PUBLIC "-//W3C//DTD SVG 20010904//EN"
 "http://www.w3.org/TR/2001/REC-SVG-20010904/DTD/svg10.dtd">
<svg version="1.0" xmlns="http://www.w3.org/2000/svg"
 width="536.000000pt" height="536.000000pt" viewBox="0 0 536.000000 536.000000"
 preserveAspectRatio="xMidYMid meet">
<metadata>
Created by potrace 1.11, written by Peter Selinger 2001-2013
</metadata>
<g transform="translate(0.000000,536.000000) scale(0.100000,-0.100000)"
fill="#000000" stroke="none">
<path d="M2498 5012 c-53 -2 -78 -7 -78 -15 0 -7 -4 -6 -10 3 -9 13 -10 13
-10 0 0 -13 -1 -13 -10 0 -6 10 -10 11 -10 3 0 -9 -16 -13 -48 -13 -26 0 -54
-6 -61 -12 -8 -7 -11 -8 -8 -2 3 6 0 11 -8 11 -8 0 -12 -4 -9 -9 3 -4 -4 -8
-15 -8 -12 0 -21 -6 -21 -12 0 -9 -4 -8 -10 2 -5 8 -10 11 -10 5 0 -5 -11 -15
-25 -22 -14 -6 -23 -7 -19 -2 3 5 1 9 -3 9 -5 0 -14 -9 -21 -21 -11 -17 -16
-19 -29 -7 -9 7 -14 8 -10 2 3 -6 -6 -17 -21 -25 -15 -8 -30 -18 -34 -24 -5
-6 -8 -5 -8 3 0 10 -4 9 -16 -2 -8 -9 -21 -13 -27 -9 -7 4 -7 1 1 -9 11 -14
10 -16 -9 -11 -13 4 -20 2 -16 -4 3 -5 -10 -16 -29 -23 -19 -8 -40 -21 -46
-30 -10 -12 -10 -13 2 -2 22 19 32 14 13 -6 -10 -10 -24 -16 -32 -14 -8 3 -12
1 -8 -5 4 -6 0 -14 -9 -17 -8 -3 -12 -10 -9 -16 3 -6 -1 -7 -9 -4 -11 4 -16 0
-16 -11 0 -10 -5 -13 -12 -9 -7 5 -9 2 -5 -9 3 -9 0 -18 -9 -21 -9 -3 -12 -11
-8 -17 4 -8 3 -9 -5 -5 -9 6 -9 11 1 24 11 13 11 14 0 8 -7 -4 -17 -19 -23
-33 -5 -13 -13 -21 -19 -18 -6 4 -7 -1 -3 -11 4 -11 2 -15 -4 -11 -6 4 -13 -3
-16 -14 -3 -12 -10 -18 -15 -15 -6 3 -8 -2 -5 -14 3 -11 1 -20 -5 -20 -5 0
-13 -11 -16 -25 -4 -17 -11 -23 -19 -18 -8 4 -7 1 2 -10 7 -9 11 -18 7 -18 -3
-1 -10 -3 -16 -4 -5 -1 -13 -3 -16 -4 -4 0 -1 -8 6 -16 10 -12 9 -16 -4 -21
-9 -3 -13 -11 -9 -17 4 -7 0 -8 -12 -3 -15 5 -16 4 -5 -9 10 -12 9 -16 -2 -20
-9 -4 -14 -16 -12 -31 2 -19 -1 -23 -10 -14 -10 8 -13 5 -11 -15 2 -14 0 -25
-5 -25 -5 0 -7 -11 -5 -25 2 -22 0 -23 -13 -13 -13 11 -14 10 -4 -8 6 -11 7
-26 2 -33 -4 -8 -7 -24 -5 -37 1 -14 -2 -21 -8 -17 -6 4 -8 0 -4 -9 3 -9 0
-21 -6 -27 -8 -8 -8 -11 1 -11 10 0 10 -5 2 -20 -7 -13 -7 -26 -1 -38 7 -13 6
-23 -1 -30 -9 -9 -9 -12 1 -12 7 0 10 -4 6 -9 -3 -5 0 -13 6 -17 6 -3 9 -19 5
-35 -4 -23 -2 -29 12 -29 13 0 14 -2 4 -9 -11 -6 -10 -12 4 -25 13 -14 14 -20
5 -26 -10 -5 -9 -9 4 -14 9 -3 13 -10 10 -16 -3 -5 -2 -10 3 -10 6 0 13 -7 16
-16 3 -8 2 -12 -4 -9 -6 3 -7 -1 -4 -9 3 -9 10 -16 14 -16 4 0 11 -7 14 -16 4
-10 2 -13 -7 -7 -6 4 -4 -4 5 -17 9 -14 21 -24 26 -23 5 1 8 -13 7 -31 -1 -24
2 -33 12 -29 7 3 13 0 13 -7 0 -7 6 -10 13 -7 8 3 14 -1 14 -8 0 -8 -7 -11
-15 -7 -9 3 -5 -5 8 -18 13 -13 19 -25 14 -27 -6 -2 -8 -18 -6 -35 3 -18 1
-28 -5 -25 -5 3 -10 0 -10 -8 0 -8 5 -11 11 -8 6 4 5 -1 -3 -11 -16 -19 -21
-60 -9 -79 4 -6 2 -17 -3 -23 -7 -8 -6 -14 1 -19 15 -9 13 -38 -2 -30 -7 4 -4
-1 6 -9 15 -12 16 -16 5 -16 -12 0 -12 -2 1 -9 8 -6 17 -8 21 -5 5 2 6 -5 4
-16 -2 -11 1 -20 6 -20 6 0 6 -8 -1 -20 -6 -11 -7 -20 -3 -19 17 3 33 -1 32
-8 -3 -19 2 -33 12 -33 5 0 7 5 3 12 -4 7 -3 8 4 4 6 -4 9 -13 6 -20 -3 -7 3
-19 13 -27 17 -13 17 -13 3 6 -14 18 -13 19 1 8 9 -7 19 -10 23 -6 4 4 4 -1 0
-12 -6 -14 -4 -17 9 -12 9 3 16 3 16 -1 -4 -25 3 -34 21 -29 11 3 20 1 20 -4
0 -4 7 -6 15 -3 8 4 15 1 15 -6 0 -9 4 -9 17 1 9 8 14 9 10 3 -4 -7 0 -15 9
-18 9 -3 14 -12 11 -19 -3 -8 -1 -20 3 -27 5 -8 5 -21 0 -30 -5 -9 -10 -27
-12 -41 -2 -13 -6 -29 -10 -34 -4 -6 -3 -17 2 -25 4 -7 6 -19 3 -27 -5 -13 6
-17 38 -14 9 1 19 -7 22 -19 3 -11 2 -20 -1 -20 -4 0 -7 -13 -7 -30 0 -16 4
-30 9 -30 5 0 3 -7 -4 -15 -6 -8 -8 -20 -4 -26 4 -7 3 -9 -3 -6 -6 4 -11 -4
-12 -18 -4 -57 -6 -63 -15 -58 -5 4 -7 -1 -3 -9 3 -9 1 -20 -5 -26 -8 -8 -8
-15 0 -24 7 -9 7 -19 2 -28 -5 -9 -5 -19 2 -27 8 -10 7 -18 -5 -31 -12 -13
-13 -22 -5 -36 7 -13 7 -17 0 -12 -6 4 -16 -3 -22 -15 -10 -17 -9 -20 2 -13 7
4 4 -3 -7 -16 -11 -13 -13 -20 -6 -15 11 6 9 -2 -5 -26 -21 -36 -81 -82 -95
-73 -5 3 -9 -2 -9 -11 0 -11 -5 -15 -16 -11 -10 4 -13 2 -8 -6 5 -8 2 -9 -11
-4 -15 5 -16 4 -6 -8 9 -11 9 -16 0 -22 -8 -4 -9 -3 -5 4 4 7 3 12 -3 12 -5 0
-13 -10 -16 -21 -6 -17 -9 -19 -16 -8 -7 11 -10 9 -15 -8 -4 -13 -11 -20 -16
-17 -5 3 -16 -2 -23 -12 -13 -17 -16 -17 -25 -4 -8 12 -10 10 -10 -10 0 -20
-2 -22 -10 -10 -9 13 -10 13 -10 0 0 -13 -1 -13 -10 0 -6 9 -10 10 -10 3 0 -6
-9 -11 -20 -10 -12 1 -18 7 -16 14 3 8 -1 10 -11 6 -11 -4 -14 -2 -9 5 6 11
-11 17 -36 13 -4 0 -5 7 -3 17 2 15 -4 18 -38 17 -23 0 -51 7 -61 15 -12 9
-16 10 -12 3 4 -7 2 -13 -3 -13 -6 0 -11 5 -11 11 0 5 -4 7 -10 4 -5 -3 -7 0
-4 8 3 8 0 18 -7 23 -8 5 -10 3 -5 -7 4 -8 1 -5 -8 5 -8 10 -13 23 -9 28 3 6
-4 5 -15 -1 -16 -9 -19 -7 -18 7 1 11 -6 16 -17 16 -13 -2 -15 1 -7 11 8 10 8
15 -1 21 -8 5 -9 3 -4 -6 5 -9 4 -11 -3 -6 -7 4 -12 14 -12 22 0 8 -6 13 -12
12 -7 -2 -12 5 -12 15 2 15 -8 21 -28 18 -4 0 -5 8 -3 19 2 11 0 20 -6 20 -5
0 -9 7 -9 15 0 23 -22 65 -31 59 -5 -3 -5 5 0 18 6 16 4 27 -6 37 -11 10 -12
16 -3 21 8 5 8 9 -3 13 -16 6 -17 23 -4 44 4 6 3 14 -1 17 -5 3 -9 16 -8 28 1
13 -5 30 -13 38 -9 10 -10 15 -2 18 8 3 8 9 1 23 -8 13 -7 19 0 19 8 0 8 6 0
20 -9 16 -8 22 5 26 13 5 13 9 3 22 -10 12 -10 14 0 8 7 -4 15 -1 18 8 3 9 11
13 17 9 6 -4 8 0 4 10 -3 9 0 18 9 21 9 3 12 11 8 17 -4 8 -3 9 5 5 9 -6 9
-12 -1 -24 -12 -15 -11 -16 5 -3 10 8 16 22 14 32 -3 12 0 16 9 12 9 -3 14 2
14 16 0 12 5 21 11 21 5 0 7 5 4 10 -3 6 -1 10 6 10 8 0 8 4 -1 15 -10 12 -9
16 2 20 10 4 13 17 11 38 -7 56 -13 78 -22 73 -5 -3 -7 8 -6 25 2 19 -3 33
-11 36 -8 3 -11 10 -7 16 4 6 1 7 -7 2 -10 -6 -9 -11 5 -22 11 -7 14 -13 8
-13 -6 0 -21 13 -34 29 -16 21 -26 26 -31 18 -6 -9 -8 -9 -8 1 0 8 -16 12 -44
12 -41 0 -44 2 -48 30 -3 16 0 34 6 40 7 7 6 10 -2 10 -7 0 -12 7 -12 16 0 8
-4 12 -10 9 -5 -3 -10 -1 -10 4 0 6 -20 11 -45 11 -29 0 -45 4 -46 13 -2 33
-11 60 -24 73 -18 19 -20 4 -2 -16 10 -12 9 -12 -5 -1 -10 7 -18 20 -18 27 0
8 -5 14 -11 14 -5 0 -8 4 -4 9 3 5 0 13 -6 17 -8 4 -9 3 -5 -4 4 -7 2 -12 -3
-12 -6 0 -11 5 -11 10 0 6 -13 10 -30 10 -17 0 -30 5 -30 13 0 8 -4 7 -10 -3
-6 -10 -10 -11 -10 -2 0 8 -19 12 -60 12 -40 0 -60 -4 -60 -12 0 -9 -3 -9 -12
0 -7 7 -17 12 -22 12 -6 0 -4 -5 4 -10 12 -8 11 -10 -7 -10 -14 0 -23 6 -23
16 0 8 -4 12 -10 9 -9 -6 -14 8 -11 28 0 4 -8 7 -19 7 -11 0 -20 5 -20 10 0 6
-21 10 -46 10 -27 0 -43 -4 -39 -10 5 -9 -15 -15 -38 -11 -4 1 -3 -7 2 -18 9
-16 8 -18 -8 -14 -15 4 -22 -4 -32 -31 -7 -20 -17 -36 -21 -36 -5 0 -4 -9 2
-19 7 -14 7 -22 -2 -27 -7 -5 -8 -3 -3 7 5 8 5 11 0 7 -4 -4 -7 -44 -6 -88 l2
-80 -45 0 c-25 0 -48 -5 -51 -10 -4 -6 -11 -8 -16 -5 -5 3 -6 -2 -2 -11 4 -12
3 -15 -5 -10 -7 4 -13 2 -13 -3 -2 -14 -6 -29 -9 -36 -7 -13 -5 -31 3 -42 5
-7 4 -20 -3 -33 -9 -16 -8 -22 5 -27 13 -5 14 -7 3 -14 -10 -7 -9 -9 5 -9 10
0 17 -8 17 -21 0 -13 4 -18 13 -13 8 5 8 2 -2 -9 -11 -15 -11 -17 1 -17 9 0
14 -9 14 -22 -1 -14 4 -22 12 -20 7 1 15 -5 18 -13 3 -8 9 -13 13 -11 3 2 12
-3 20 -11 12 -13 11 -15 -10 -9 -20 5 -19 4 4 -7 15 -7 24 -17 20 -22 -5 -5 1
-3 11 5 13 10 17 10 12 3 -4 -8 -2 -13 4 -13 6 0 8 -5 4 -11 -4 -7 2 -7 17 1
13 7 21 9 17 5 -4 -4 2 -16 14 -26 27 -24 34 -24 17 -1 -7 9 0 5 15 -11 15
-15 31 -25 37 -22 5 4 9 1 9 -4 0 -6 5 -11 11 -11 5 0 8 4 5 9 -4 5 5 4 19 -2
14 -7 25 -16 25 -20 0 -5 4 -6 9 -3 5 3 11 -1 15 -9 3 -8 11 -15 19 -15 17 0
58 -46 49 -55 -4 -4 4 -2 17 5 15 8 21 8 17 1 -4 -7 1 -11 13 -11 12 0 21 -4
21 -10 0 -5 5 -10 11 -10 5 0 8 4 5 9 -4 5 5 4 19 -2 14 -7 25 -15 25 -18 0
-3 26 -7 57 -8 32 -1 64 -8 72 -14 8 -7 12 -7 9 -2 -4 6 2 11 12 11 12 0 17
-6 14 -19 -2 -14 1 -17 14 -12 13 5 14 4 5 -6 -10 -10 -9 -16 5 -28 9 -9 17
-25 16 -36 0 -11 7 -28 15 -38 13 -16 13 -19 1 -27 -8 -6 -10 -10 -5 -10 6 0
16 -9 23 -21 8 -12 9 -19 4 -15 -5 3 -7 -6 -4 -20 3 -16 7 -21 12 -14 5 7 9 2
12 -14 3 -14 1 -23 -3 -20 -15 9 -10 -2 11 -26 19 -22 19 -24 2 -36 -16 -13
-16 -14 0 -8 14 5 19 -2 24 -36 4 -27 11 -39 19 -36 8 3 11 -2 8 -15 -3 -10 0
-19 6 -19 6 0 11 -9 11 -21 0 -13 4 -18 13 -13 6 4 9 4 5 -1 -4 -4 -2 -15 5
-23 9 -13 9 -14 -1 -8 -6 4 -12 2 -12 -3 0 -6 7 -11 15 -11 8 0 15 -8 15 -17
0 -9 8 -25 17 -36 13 -15 14 -18 3 -13 -8 5 -4 -2 10 -15 14 -13 20 -20 13
-15 -10 6 -12 4 -7 -8 3 -9 16 -16 28 -16 17 0 18 -2 6 -10 -12 -8 -10 -10 8
-10 13 0 20 -4 17 -10 -3 -5 -1 -10 5 -10 7 0 10 -6 7 -13 -3 -8 1 -14 9 -14
7 0 11 5 8 11 -3 6 1 3 9 -6 8 -10 21 -18 30 -18 8 0 18 -6 20 -12 4 -10 6 -9
6 1 1 9 8 6 21 -9 11 -13 20 -17 20 -10 0 7 14 -3 31 -21 17 -19 28 -28 24
-22 -10 21 9 15 25 -7 10 -14 16 -16 22 -7 6 9 8 9 8 -1 0 -9 14 -12 44 -11
27 2 42 7 39 13 -4 5 1 7 11 3 14 -5 17 -3 12 8 -5 14 11 21 37 16 5 -1 6 2 4
6 -6 10 14 39 28 41 6 1 11 7 11 12 1 6 3 13 4 18 1 4 2 10 1 15 0 4 2 6 6 6
23 -4 43 2 38 11 -5 9 16 15 38 11 5 -1 6 3 2 9 -3 5 -1 11 4 11 6 1 15 2 20
3 5 0 13 5 18 10 5 6 2 6 -7 1 -10 -5 -8 -1 4 13 20 23 32 30 21 12 -3 -5 1
-10 10 -10 9 0 13 5 10 10 -3 6 1 13 9 16 9 3 13 11 9 18 -4 6 0 6 9 -2 13
-10 18 -10 24 -1 4 8 3 9 -4 5 -7 -4 -12 -2 -12 5 0 6 8 9 19 6 14 -3 17 0 14
14 -3 11 0 19 6 19 7 0 9 -6 6 -12 -4 -7 1 -4 9 6 9 11 16 16 16 12 0 -5 9 3
21 18 15 19 24 24 33 16 7 -5 16 -7 19 -3 4 3 7 1 7 -7 0 -10 4 -10 17 1 12
10 15 10 9 1 -5 -8 8 -27 36 -54 24 -23 37 -38 30 -34 -7 4 -4 -7 7 -27 11
-20 16 -39 11 -47 -5 -7 -4 -23 0 -36 5 -12 6 -25 2 -29 -3 -3 0 -10 8 -15 12
-8 12 -10 1 -10 -11 0 -11 -3 -1 -15 6 -8 9 -19 5 -25 -3 -5 -1 -10 5 -10 8 0
8 -6 0 -20 -6 -11 -8 -20 -4 -20 3 0 0 -8 -7 -17 -9 -11 -10 -14 -2 -9 9 5 11
2 7 -8 -3 -9 -10 -16 -14 -16 -4 0 -6 -11 -5 -25 2 -14 -2 -28 -7 -32 -7 -4
-8 -1 -3 7 5 8 4 11 -2 7 -11 -7 -11 -36 0 -54 4 -6 3 -15 -3 -18 -8 -5 -8
-11 0 -20 8 -10 8 -19 0 -34 -8 -16 -8 -27 1 -42 9 -17 8 -20 -2 -14 -9 6 -11
3 -6 -9 4 -9 3 -15 -1 -12 -5 3 -23 -4 -40 -14 -18 -11 -32 -15 -32 -9 0 5 -5
7 -10 4 -6 -4 -8 -11 -5 -16 4 -5 -1 -9 -10 -9 -10 0 -14 -5 -10 -12 4 -7 0
-6 -7 4 -14 16 -88 24 -88 9 0 -4 -13 -7 -30 -7 -16 0 -30 3 -30 8 0 4 -7 8
-16 8 -19 0 -45 25 -36 35 4 4 -4 2 -18 -5 -14 -7 -22 -9 -18 -5 11 12 -33 42
-59 39 -13 -1 -23 2 -23 7 0 6 -5 7 -10 4 -6 -3 -13 1 -16 9 -3 9 -10 16 -16
16 -5 0 -7 -4 -4 -9 4 -5 -5 -4 -19 2 -14 7 -25 17 -25 22 0 6 -5 3 -10 -5 -6
-10 -10 -11 -10 -2 0 6 -9 12 -20 12 -11 0 -20 5 -20 11 0 8 -6 7 -17 -2 -11
-10 -14 -10 -9 -1 5 8 0 12 -13 12 -12 0 -21 6 -21 13 0 8 -4 7 -10 -3 -6 -10
-10 -11 -10 -2 0 6 -9 12 -20 12 -11 0 -20 6 -20 13 0 8 -4 7 -10 -3 -6 -10
-10 -11 -10 -2 0 9 -30 12 -115 12 -85 0 -115 -3 -115 -12 0 -8 -3 -9 -8 -3
-9 13 -35 18 -27 5 4 -6 -22 -10 -74 -10 -53 0 -81 -4 -81 -11 0 -8 -6 -7 -17
2 -9 8 -14 9 -11 4 4 -6 -5 -15 -18 -22 -13 -6 -22 -7 -18 -2 3 5 -2 6 -10 3
-8 -3 -13 -11 -10 -19 3 -7 -5 -15 -20 -19 -16 -4 -23 -11 -20 -20 3 -8 0 -17
-6 -21 -9 -6 -9 -10 1 -16 10 -6 11 -9 2 -9 -7 0 -13 -7 -13 -16 0 -8 -5 -12
-11 -8 -8 5 -8 1 0 -14 6 -11 14 -22 18 -24 5 -3 2 -3 -4 -2 -19 5 -16 -2 10
-27 12 -12 16 -19 10 -15 -9 5 -11 2 -7 -8 3 -9 14 -16 24 -16 11 0 22 -4 25
-10 3 -6 -1 -7 -12 -4 -10 3 -6 -2 10 -11 26 -15 39 -33 15 -20 -7 4 -2 -3 12
-14 23 -19 23 -21 5 -21 -19 -1 -19 -1 1 -13 12 -7 20 -20 18 -30 -1 -9 3 -23
10 -30 25 -25 36 -53 24 -65 -8 -8 -4 -9 13 -6 19 5 21 4 9 -5 -12 -9 -11 -11
8 -11 12 0 22 -5 22 -11 0 -5 -5 -7 -12 -3 -7 4 -8 3 -4 -5 4 -6 11 -9 16 -6
5 3 11 -3 15 -14 3 -11 13 -22 22 -26 14 -5 14 -2 -3 17 l-19 23 23 -19 c13
-11 20 -26 17 -34 -4 -12 -3 -12 9 -3 11 9 14 8 12 -6 0 -10 6 -18 14 -18 8 0
15 -5 15 -12 0 -6 4 -15 9 -20 5 -5 6 -3 2 5 -12 21 4 13 31 -15 14 -16 22
-21 17 -13 -6 10 -3 9 8 -2 12 -13 18 -15 21 -6 4 8 6 7 6 -4 1 -9 6 -20 13
-24 7 -5 8 -3 3 6 -5 9 -4 11 3 6 7 -4 12 -15 13 -24 0 -11 3 -12 6 -4 2 6 9
12 14 12 6 0 7 -5 4 -10 -3 -6 1 -10 9 -10 9 0 16 -5 16 -11 0 -8 6 -7 18 2 9
7 14 10 10 5 -12 -14 15 -35 30 -23 10 8 12 7 10 -4 -2 -8 3 -13 10 -12 6 2
12 -2 12 -8 0 -5 4 -8 9 -4 6 3 14 -3 20 -12 7 -13 10 -14 11 -4 0 10 6 7 18
-7 15 -17 21 -19 32 -9 7 7 10 7 7 2 -3 -6 6 -15 19 -22 13 -6 21 -7 18 -2 -3
5 6 4 20 -2 14 -7 23 -17 19 -22 -4 -6 0 -8 11 -4 10 4 19 1 23 -9 5 -13 7
-13 14 -2 7 10 9 10 9 1 0 -8 13 -13 30 -13 17 0 30 -5 30 -12 0 -9 4 -8 10 2
6 10 10 11 10 3 0 -7 9 -13 20 -13 11 0 20 -4 20 -10 0 -5 5 -10 11 -10 5 0 7
6 3 13 -6 10 -4 10 7 0 7 -7 28 -13 46 -13 20 0 33 -5 33 -12 0 -10 2 -10 8
-1 6 9 12 7 22 -7 16 -22 36 -28 24 -7 -6 9 -4 9 7 0 7 -7 32 -13 56 -13 24 0
43 -4 43 -9 0 -4 35 -9 78 -10 42 -1 79 -6 80 -12 2 -5 8 -9 13 -9 6 0 7 6 3
12 -6 10 -5 10 7 1 8 -6 43 -13 77 -14 48 -2 59 -5 51 -15 -7 -8 -6 -14 2 -20
8 -4 9 -3 5 4 -4 7 -3 12 2 12 5 0 12 -14 16 -31 5 -26 9 -29 20 -20 12 10 13
8 9 -11 -5 -19 -3 -21 7 -11 11 10 17 7 32 -17 10 -17 23 -30 30 -30 8 0 5 5
-4 11 -10 5 -18 14 -18 20 0 5 10 1 22 -11 12 -11 28 -20 35 -20 7 0 13 -6 13
-12 0 -9 4 -8 10 2 5 8 10 10 10 3 0 -6 21 -13 50 -15 28 -1 50 0 50 4 0 10
33 -3 42 -16 5 -7 8 -6 8 3 0 9 6 7 19 -7 18 -22 38 -31 27 -13 -4 5 5 4 19
-2 14 -7 25 -16 25 -22 0 -5 5 -3 10 5 6 10 10 11 10 3 0 -7 9 -13 20 -13 11
0 20 -6 20 -12 0 -9 4 -8 10 2 6 10 10 11 10 3 0 -17 37 -17 43 0 4 9 8 9 15
-2 8 -11 10 -11 14 0 4 11 10 10 27 -5 25 -22 55 -31 44 -13 -5 9 -3 9 8 1 8
-6 29 -14 46 -16 26 -4 30 -2 21 9 -9 11 -7 12 8 7 10 -4 16 -4 12 1 -11 11
31 45 48 38 8 -3 14 0 14 6 0 6 6 10 13 8 6 -1 11 3 10 10 -2 7 3 10 10 7 11
-4 15 6 19 53 1 7 7 14 15 17 7 3 13 11 13 18 0 9 -3 8 -10 -2 -6 -9 -10 -10
-10 -3 0 7 8 17 18 22 12 7 18 19 16 40 -1 22 3 31 13 31 8 0 12 4 9 9 -3 5 8
8 25 7 16 -1 32 1 35 5 2 4 13 6 24 4 11 -2 20 0 20 6 0 5 9 9 20 9 11 0 20 6
20 13 0 8 4 7 10 -3 6 -10 10 -11 10 -2 0 6 9 12 21 12 13 0 18 4 13 13 -5 9
-4 9 5 1 10 -9 20 -8 42 3 16 8 29 18 29 23 0 5 6 7 14 4 8 -3 21 5 30 18 9
12 16 16 16 9 0 -8 9 -3 21 10 11 13 18 18 14 12 -11 -22 9 -14 23 8 11 17 16
19 29 7 12 -9 15 -10 9 0 -7 11 5 17 27 13 5 -1 6 3 2 9 -3 5 1 10 10 10 10 0
13 5 9 13 -6 9 -5 9 7 0 17 -14 39 0 39 25 0 8 6 12 15 8 8 -3 14 -2 12 2 -1
4 6 18 16 32 9 13 17 20 17 14 0 -5 -5 -15 -10 -20 -7 -7 -6 -11 4 -11 8 0 14
5 13 11 -1 6 4 10 11 8 8 -1 11 2 7 8 -3 5 -1 10 5 10 6 0 8 5 4 12 -5 8 0 7
11 -2 17 -14 18 -13 13 2 -4 10 -1 19 8 22 9 3 12 11 8 17 -4 8 -3 9 5 5 9 -6
9 -12 -1 -24 -12 -15 -11 -16 5 -3 9 7 17 18 17 23 0 15 27 38 35 30 5 -4 6 1
2 10 -3 10 0 19 9 22 9 3 12 11 8 17 -4 8 -3 9 5 5 9 -6 9 -11 -1 -24 -11 -13
-11 -14 0 -8 7 4 17 19 23 33 5 13 13 21 19 18 6 -3 7 1 4 10 -5 11 -2 14 10
9 12 -5 15 -2 10 10 -4 11 -1 16 11 16 9 0 14 4 10 9 -3 5 -1 12 5 16 6 4 8
11 5 16 -4 5 -1 9 6 9 8 0 7 5 -2 17 -13 15 -12 15 11 3 23 -12 24 -12 11 3
-9 12 -10 17 -2 17 7 0 9 5 6 10 -3 6 1 13 10 16 12 5 13 9 4 20 -8 10 -8 14
0 14 7 0 11 30 11 91 0 58 -4 88 -10 84 -6 -4 -13 8 -17 25 -4 23 -8 28 -15
18 -7 -9 -8 -7 -5 10 3 12 1 20 -3 17 -5 -3 -13 3 -19 12 -6 10 -11 13 -11 8
0 -6 3 -15 8 -21 4 -5 0 -1 -10 8 -13 15 -33 18 -112 18 -70 0 -96 3 -96 13 0
8 -4 7 -10 -3 -6 -10 -10 -11 -10 -2 0 6 -11 12 -25 12 -14 0 -25 -6 -25 -12
0 -9 -4 -8 -10 2 -9 13 -10 13 -10 0 0 -12 -2 -13 -9 -1 -6 9 -10 10 -12 2 -3
-7 -14 -13 -27 -14 -12 0 -22 -5 -22 -9 0 -4 -14 -8 -31 -8 -18 0 -28 -4 -24
-10 8 -13 -18 -8 -27 5 -5 6 -8 5 -8 -2 0 -7 -7 -13 -16 -13 -8 0 -13 -3 -10
-8 2 -4 -9 -8 -26 -9 -17 0 -34 -7 -39 -14 -7 -12 -9 -12 -9 0 0 9 -6 7 -19
-7 -20 -24 -36 -29 -26 -9 4 6 -3 1 -15 -13 -12 -14 -19 -19 -15 -12 9 17 -3
15 -22 -3 -8 -8 -19 -12 -25 -9 -6 4 -8 3 -5 -2 3 -6 -3 -16 -15 -23 -16 -10
-19 -10 -13 1 3 7 0 5 -8 -4 -8 -10 -16 -15 -20 -12 -3 3 -8 -4 -12 -17 -6
-17 -9 -19 -16 -8 -7 12 -9 11 -9 -1 0 -12 -2 -13 -9 -1 -7 11 -10 9 -16 -8
-3 -12 -11 -19 -16 -16 -5 4 -9 0 -9 -8 0 -8 -8 -14 -17 -13 -11 0 -17 -5 -15
-13 3 -12 0 -12 -13 -1 -13 11 -15 10 -9 -4 4 -11 2 -15 -8 -11 -8 3 -21 -2
-29 -12 -13 -16 -12 -17 4 -4 11 9 17 10 17 2 0 -6 -3 -11 -7 -12 -5 0 -19 -2
-32 -5 -18 -3 -22 -1 -17 11 3 8 0 15 -6 15 -6 0 -5 6 3 16 8 9 12 28 11 42
-3 17 0 22 9 17 7 -5 10 -4 5 3 -3 6 -2 14 4 17 8 5 7 12 -2 23 -10 12 -10 14
0 8 7 -4 12 -1 12 8 0 12 -12 16 -47 17 -27 1 -51 1 -55 0 -4 0 -5 5 -2 12 2
7 -8 22 -24 34 -21 15 -28 30 -30 59 -2 31 -8 76 -17 124 0 3 -7 16 -14 29 -7
13 -8 21 -2 17 7 -5 9 -1 5 8 -3 9 -11 16 -17 16 -8 0 -8 3 0 11 6 6 8 23 3
45 -5 20 -4 34 1 34 6 0 5 9 -1 20 -7 14 -7 20 0 20 5 0 10 11 10 24 0 14 5
28 10 31 7 4 7 13 0 26 -6 10 -8 19 -4 19 3 0 0 8 -7 17 -9 11 -10 14 -2 9 9
-5 11 -2 7 8 -3 9 -11 16 -16 16 -6 0 -6 6 1 14 9 11 9 16 0 21 -8 6 -7 10 5
17 12 7 14 13 7 21 -6 8 -5 19 5 31 10 15 14 16 15 5 0 -8 5 -4 11 9 11 22 48
31 48 12 0 -5 5 -10 11 -10 5 0 7 6 4 13 -3 6 2 2 11 -11 9 -12 24 -22 33 -22
9 0 22 -9 29 -20 7 -11 20 -20 29 -20 10 0 35 -19 55 -41 21 -23 38 -37 38
-32 0 5 -3 13 -7 19 -5 5 4 -3 18 -18 14 -15 30 -24 34 -20 5 4 5 -1 2 -10 -4
-11 -2 -15 7 -12 7 3 20 -2 29 -10 9 -9 21 -16 28 -16 6 0 20 -10 30 -22 11
-11 19 -16 19 -9 0 7 5 9 10 6 6 -4 8 -10 5 -15 -3 -4 2 -11 11 -14 8 -3 12
-2 9 4 -3 6 -2 10 4 10 5 0 13 -9 16 -21 6 -17 9 -18 23 -7 13 11 15 10 9 -5
-4 -11 -3 -16 3 -12 6 3 10 0 10 -7 0 -10 2 -10 9 1 7 10 9 11 13 1 2 -8 11
-15 19 -16 7 -2 26 -6 42 -10 16 -4 27 -2 27 4 0 6 11 9 25 7 17 -1 25 3 25
14 0 14 2 14 10 1 8 -13 10 -12 10 4 0 13 5 17 20 13 17 -4 18 -2 9 15 -7 13
-7 18 -1 14 6 -3 14 -1 17 5 4 5 14 8 22 4 13 -4 14 -3 3 10 -7 9 -10 18 -6
22 3 3 6 1 6 -6 0 -7 5 -9 13 -4 6 4 14 8 17 8 3 0 19 10 35 23 29 23 17 21
-15 -2 -9 -6 -5 -1 8 11 13 13 29 23 37 23 9 0 12 6 9 15 -4 10 0 15 11 15 11
0 15 5 11 15 -4 12 -2 13 13 6 13 -8 18 -6 18 5 0 7 -5 14 -10 14 -6 0 -7 3
-4 6 4 4 14 1 24 -7 10 -9 14 -9 9 -2 -4 7 0 25 9 40 9 16 14 20 11 10 -3 -9
-1 -17 4 -17 6 0 10 7 10 15 0 8 8 15 18 15 14 0 15 2 2 10 -13 8 -12 10 3 10
10 0 15 5 12 10 -3 6 1 13 9 16 12 5 13 11 6 25 -8 14 -7 17 4 13 8 -3 17 -1
21 5 3 6 0 11 -7 11 -8 0 -6 5 5 11 9 6 14 15 11 21 -5 8 -1 9 11 4 16 -6 16
-4 4 11 -8 9 -9 14 -4 12 6 -3 18 2 28 13 9 10 14 18 11 18 -4 0 0 8 7 17 12
14 12 16 -1 9 -13 -7 -13 -6 0 6 8 7 15 20 15 28 0 8 5 14 12 13 7 -2 10 4 7
12 -3 8 6 29 20 48 14 19 24 36 21 39 -3 3 6 17 19 31 14 15 21 27 15 27 -5 0
-4 6 3 14 7 8 18 11 23 8 6 -3 5 1 -2 9 -10 12 -8 17 8 27 16 10 18 16 10 26
-9 10 -7 15 9 19 11 3 20 10 20 17 0 6 -5 8 -12 4 -9 -5 -9 -3 1 9 7 9 17 15
20 12 4 -2 8 2 8 10 0 8 -5 11 -11 8 -6 -3 0 5 14 18 13 13 29 23 34 21 5 -2
4 4 -3 12 -10 12 -9 17 8 25 12 7 18 17 15 26 -4 8 -2 15 4 15 6 0 8 10 4 22
-3 14 -1 19 6 14 6 -3 13 -2 17 4 3 5 0 10 -7 11 -7 0 -2 5 12 10 20 8 22 12
10 20 -11 8 -9 9 9 4 14 -4 21 -3 18 3 -4 5 26 10 76 11 45 1 84 7 88 13 4 7
9 6 14 -2 5 -8 14 -5 31 11 13 12 27 19 30 16 4 -4 13 1 21 11 8 9 11 11 8 3
-6 -9 -1 -9 17 3 14 9 28 13 33 9 4 -5 5 -2 1 5 -7 11 12 18 38 13 5 -1 4 5
-3 13 -10 12 -9 14 7 9 11 -2 23 1 27 8 5 8 4 10 -3 5 -8 -5 -10 -2 -6 8 7 17
20 21 27 9 2 -5 2 -3 1 4 -2 7 1 15 6 18 6 4 10 0 10 -7 0 -9 3 -9 10 2 5 8
15 15 22 15 7 1 12 7 10 15 -1 10 3 8 13 -4 8 -11 15 -14 15 -8 0 7 7 12 16
12 9 0 12 5 8 13 -5 8 -2 8 9 -2 12 -9 17 -10 17 -2 0 7 5 9 10 6 6 -3 10 -1
10 5 0 6 5 8 10 5 6 -3 10 -1 10 6 0 8 5 8 18 -2 9 -7 14 -10 10 -5 -4 5 -1
15 7 22 17 17 28 18 20 2 -4 -7 2 -2 13 11 13 16 21 20 26 12 9 -14 29 -3 23
13 -3 7 4 13 16 13 11 1 25 7 31 14 8 8 8 10 0 6 -6 -3 -11 0 -11 8 0 11 5 12
20 3 15 -8 18 -7 12 3 -5 7 -1 17 10 26 11 7 15 13 11 13 -5 0 -2 8 5 17 12
14 12 16 -1 9 -8 -4 -7 -1 3 7 12 10 15 17 7 22 -7 4 -7 11 -2 18 16 21 23 49
10 41 -8 -5 -9 0 -5 15 4 17 2 20 -7 12 -9 -8 -13 -7 -13 2 0 6 -3 24 -6 40
-3 16 -2 25 4 22 5 -4 7 -11 4 -16 -4 -5 -4 -9 -1 -9 3 0 10 10 17 21 8 15 8
19 0 15 -6 -4 0 13 13 39 14 25 19 43 13 39 -7 -3 -3 2 7 10 11 9 16 16 12 16
-5 0 -3 7 4 15 9 11 9 15 1 15 -8 0 -9 5 -1 19 7 14 7 22 -1 26 -6 4 -8 13 -5
21 3 8 -1 14 -8 14 -7 0 -20 8 -27 18 -11 14 -11 15 1 5 8 -7 19 -13 24 -13
10 1 -18 20 -29 21 -2 0 -18 4 -35 9 -16 5 -30 5 -30 0 0 -4 -8 -6 -18 -3 -12
3 -23 -4 -30 -19 -7 -13 -10 -15 -8 -5 3 9 1 17 -4 17 -6 0 -10 -7 -10 -15 0
-8 -7 -15 -15 -15 -10 0 -15 -7 -13 -17 2 -10 -3 -17 -9 -15 -8 1 -13 -8 -13
-22 0 -14 -7 -31 -15 -40 -10 -9 -11 -17 -5 -21 6 -4 -3 -20 -23 -38 -18 -18
-26 -26 -17 -19 9 6 21 12 26 12 5 0 1 -5 -9 -11 -9 -6 -15 -14 -13 -18 3 -4
-1 -8 -9 -9 -8 -1 -22 -3 -29 -4 -12 -1 -13 -6 -4 -22 11 -20 10 -20 -7 -6
-11 9 -16 10 -11 3 4 -8 2 -13 -4 -13 -6 0 -8 -4 -5 -10 3 -5 -2 -10 -13 -10
-10 0 -27 -9 -37 -20 -19 -21 -50 -26 -60 -10 -3 6 -1 10 6 10 7 0 9 3 6 7 -4
3 2 13 14 21 14 10 18 17 10 25 -7 7 -5 15 7 24 9 8 11 11 3 7 -10 -5 -12 -3
-7 5 5 7 15 10 25 6 12 -5 13 -4 4 6 -9 9 -9 19 3 42 10 18 11 26 4 22 -7 -4
-4 5 6 21 11 15 13 25 7 21 -7 -5 -13 -4 -13 2 0 22 -2 26 -16 43 -14 14 -14
17 1 26 16 8 16 9 1 15 -12 5 -15 3 -10 -6 4 -7 3 -8 -2 -4 -5 5 -9 16 -9 25
0 10 -7 16 -17 16 -11 -1 -14 4 -11 14 4 9 2 13 -4 9 -6 -4 -13 -3 -15 3 -1 5
-13 11 -25 13 -12 2 -26 6 -29 10 -4 4 -47 7 -96 7 -64 0 -88 -3 -88 -12 0 -9
-4 -8 -10 2 -7 11 -10 11 -10 2 0 -7 -4 -10 -10 -7 -6 4 -7 -1 -3 -11 5 -14 3
-15 -17 -4 -12 7 -20 8 -17 3 3 -4 -6 -13 -19 -20 -13 -6 -22 -8 -19 -4 2 4
-2 8 -10 8 -8 0 -13 -5 -12 -11 1 -6 -4 -10 -10 -8 -7 1 -13 -2 -13 -8 0 -5
-6 -10 -14 -10 -8 0 -18 -5 -22 -12 -4 -6 -3 -8 3 -5 5 3 10 0 10 -8 0 -10 -5
-11 -19 -4 -14 7 -18 7 -16 -3 2 -7 -3 -12 -10 -10 -8 1 -11 -2 -7 -8 4 -6 12
-7 19 -3 7 4 4 1 -6 -9 -10 -9 -18 -26 -18 -37 0 -18 -6 -21 -48 -21 -26 0
-54 -6 -61 -12 -11 -11 -13 -10 -7 2 4 8 1 7 -7 -3 -9 -10 -17 -17 -20 -15 -3
2 -9 -1 -14 -6 -5 -5 -2 -6 6 -1 9 5 12 3 9 -6 -3 -8 -12 -13 -19 -11 -11 3
-11 1 -2 -9 8 -8 9 -19 2 -37 -9 -23 -8 -24 8 -11 11 9 14 10 9 2 -4 -8 -2
-13 4 -13 6 0 8 -4 5 -10 -3 -5 -1 -10 5 -10 6 0 8 -5 4 -12 -5 -8 -2 -9 9 -5
10 3 17 2 17 -4 0 -6 4 -8 9 -5 5 3 9 -5 9 -19 0 -16 -5 -22 -12 -18 -6 4 -5
-1 3 -11 13 -15 12 -18 -8 -23 -17 -4 -19 -8 -10 -19 7 -8 9 -17 5 -21 -3 -3
-6 -1 -6 5 0 6 -7 9 -15 6 -8 -4 -15 -10 -15 -16 0 -5 5 -6 12 -2 7 4 8 3 4
-4 -4 -7 -17 -12 -29 -12 -18 0 -19 -2 -7 -10 13 -8 12 -10 -4 -10 -11 0 -16
-3 -13 -7 4 -3 2 -12 -4 -20 -15 -18 -19 -83 -5 -83 6 0 5 -4 -2 -9 -11 -7
-11 -10 0 -22 7 -8 13 -24 12 -36 -1 -12 3 -20 8 -17 4 3 6 10 3 15 -4 5 -1 9
5 9 7 0 10 -7 6 -15 -3 -8 2 -21 10 -30 14 -14 11 -19 -9 -16 -4 1 -3 -8 3
-19 8 -14 8 -20 0 -20 -6 0 -8 -4 -5 -10 3 -5 0 -10 -7 -10 -9 0 -9 -3 2 -10
8 -5 10 -10 5 -10 -10 0 -14 -14 -17 -57 -1 -7 -6 -13 -11 -13 -6 0 -7 -3 -4
-7 4 -3 1 -13 -6 -21 -10 -13 -9 -14 3 -7 12 6 13 5 3 -6 -7 -7 -13 -21 -13
-31 0 -10 -5 -18 -11 -18 -8 0 -8 -5 1 -15 10 -12 9 -15 -5 -15 -12 0 -16 -6
-12 -20 3 -11 0 -18 -7 -17 -6 1 -10 -4 -8 -12 2 -8 -3 -11 -12 -8 -10 4 -13
1 -9 -9 3 -7 0 -14 -6 -14 -6 0 -10 -5 -9 -12 2 -7 -2 -12 -9 -13 -6 0 -15 -4
-20 -9 -4 -5 -3 -6 3 -3 7 4 14 0 17 -8 4 -9 1 -12 -9 -8 -7 3 -14 0 -14 -7 0
-6 -5 -8 -12 -4 -9 5 -8 2 1 -9 12 -16 12 -17 -5 -11 -10 4 -15 3 -11 -1 4 -5
-3 -15 -15 -23 -13 -7 -16 -11 -7 -9 9 3 16 -1 16 -8 0 -7 -6 -11 -14 -8 -8 3
-13 -2 -13 -15 0 -11 -7 -22 -15 -26 -8 -3 -15 -15 -15 -26 0 -12 -4 -19 -10
-15 -5 3 -7 13 -4 23 2 9 -2 4 -10 -13 -8 -16 -12 -34 -9 -38 3 -5 -3 -4 -14
1 -15 9 -20 8 -21 -4 -1 -7 -3 -21 -4 -29 -1 -8 -5 -12 -9 -10 -15 10 -38 -7
-32 -23 4 -9 3 -14 -2 -10 -4 4 -14 0 -22 -10 -8 -9 -11 -11 -7 -3 5 10 3 12
-5 7 -9 -6 -9 -11 0 -22 10 -12 9 -13 -6 -8 -12 5 -16 4 -12 -3 4 -6 -1 -10
-11 -9 -9 0 -16 -5 -14 -12 1 -8 -2 -11 -8 -7 -5 3 -10 1 -10 -5 0 -6 -5 -8
-12 -4 -7 5 -9 2 -6 -7 4 -10 -1 -15 -12 -15 -11 0 -16 6 -13 16 3 10 1 10 -7
-3 -6 -9 -9 -21 -6 -25 2 -4 -5 -9 -16 -9 -12 -1 -26 -7 -32 -14 -8 -8 -8 -10
0 -6 6 3 11 0 11 -8 0 -11 -5 -12 -20 -3 -12 6 -17 6 -13 0 11 -18 -6 -44 -25
-39 -11 3 -22 0 -26 -5 -3 -7 -1 -8 5 -4 7 4 12 1 12 -9 0 -9 -4 -13 -10 -10
-5 3 -10 1 -10 -5 0 -6 -5 -8 -12 -4 -10 6 -10 5 0 -8 10 -13 9 -15 -14 -12
-18 2 -24 -1 -20 -11 4 -11 0 -12 -19 -5 -14 5 -25 7 -25 4 0 -2 -6 1 -14 8
-8 7 -12 17 -9 21 3 5 -5 4 -17 -3 -12 -7 -20 -8 -17 -3 3 4 -1 14 -9 21 -11
10 -14 10 -14 0 0 -8 -4 -6 -11 4 -6 11 -16 15 -26 11 -11 -4 -14 -3 -9 5 4 7
2 12 -5 12 -6 0 -20 10 -30 22 -18 20 -28 13 -11 -8 4 -5 -5 3 -19 18 -27 28
-46 38 -33 16 4 -7 3 -8 -4 -4 -6 4 -9 13 -5 22 3 9 0 14 -7 12 -8 -2 -19 7
-25 19 -7 13 -15 20 -20 15 -4 -4 -6 0 -3 8 3 8 -2 21 -9 29 -11 10 -11 16 -3
21 9 6 9 9 1 15 -9 5 -9 11 1 23 11 13 11 14 -1 7 -11 -6 -13 -4 -8 8 4 10 1
17 -5 17 -6 0 -8 3 -5 6 3 4 -5 15 -18 26 -13 10 -22 25 -19 32 3 7 -3 19 -13
27 -16 12 -17 12 -6 -2 10 -13 10 -16 -2 -16 -8 0 -13 2 -11 5 8 7 -16 62 -24
57 -4 -3 -6 4 -3 15 3 12 0 20 -7 20 -7 0 -10 7 -6 15 3 8 0 15 -7 15 -9 0 -8
3 1 9 11 7 10 9 -3 14 -12 5 -14 11 -6 26 6 10 7 22 3 26 -4 5 1 5 11 2 10 -4
17 -2 17 5 0 6 3 9 6 5 11 -11 44 33 44 59 0 14 4 23 9 20 5 -4 7 2 4 13 -3
12 3 24 18 34 21 16 34 67 16 67 -4 0 -6 4 -3 9 4 5 0 12 -6 14 -10 4 -10 6
-1 6 7 1 10 8 6 17 -5 14 -1 16 20 12 15 -3 27 -2 27 3 0 4 8 6 18 5 9 -2 23
5 30 15 7 11 19 19 25 19 7 0 6 -4 -3 -10 -10 -6 -11 -10 -3 -10 7 0 18 9 25
19 10 16 15 18 27 8 12 -10 13 -9 3 10 -10 19 -9 20 8 16 12 -3 20 0 20 6 0 7
-5 9 -12 5 -7 -4 -8 -3 -4 4 4 7 14 12 22 12 8 0 14 7 14 15 0 14 13 20 34 16
5 -1 4 5 -4 13 -8 11 -9 16 -1 16 6 0 11 7 11 16 0 8 5 12 10 9 6 -3 10 -2 10
4 0 5 -6 12 -12 14 -10 4 -10 6 0 6 7 1 10 6 7 11 -3 6 -1 10 4 10 6 0 11 10
11 23 0 13 5 28 12 35 9 9 9 12 0 12 -10 0 -10 5 -1 21 6 12 7 19 1 15 -5 -3
-13 13 -17 37 -4 23 -9 47 -10 52 -2 6 -6 23 -10 39 -6 20 -4 27 3 22 6 -3 13
-2 16 3 4 5 1 13 -5 17 -8 5 -9 3 -4 -6 5 -9 4 -11 -4 -6 -9 6 -9 11 0 22 6 7
15 12 19 9 5 -3 6 5 2 17 -3 13 -1 19 5 15 7 -5 9 0 6 13 -3 13 0 20 8 20 11
0 11 2 -1 10 -12 8 -12 10 -1 10 9 0 12 9 9 30 -3 17 -1 30 4 30 4 0 8 11 8
24 0 14 5 28 11 32 8 5 8 9 -1 14 -9 6 -9 12 0 29 8 15 8 26 1 34 -6 8 -6 18
-1 27 5 9 5 19 -1 27 -7 8 -7 18 1 32 7 14 8 27 2 38 -6 9 -6 29 -2 45 5 15 5
30 0 33 -5 3 -6 16 -2 28 9 27 9 48 -1 64 -4 7 -3 21 3 32 7 14 7 22 -2 27 -7
5 -8 3 -3 -7 5 -8 4 -11 0 -6 -5 4 -10 15 -12 25 -10 61 -17 82 -26 82 -8 0
-8 3 0 11 9 9 7 18 -5 37 -9 15 -12 23 -6 19 7 -4 10 2 6 18 -2 14 -7 25 -11
25 -6 0 -12 28 -14 72 -1 9 -4 15 -8 12 -4 -2 -10 3 -13 12 -4 10 -2 13 6 8 7
-4 8 -3 4 4 -4 7 -15 12 -24 12 -15 0 -15 2 -2 10 9 6 11 10 3 10 -7 0 -10 7
-6 17 5 12 2 15 -9 10 -12 -4 -14 -1 -11 14 4 14 0 19 -13 19 -16 0 -17 2 -4
10 13 9 13 10 0 10 -13 0 -13 1 0 10 13 8 12 10 -2 10 -16 0 -23 18 -19 43 1
5 -3 6 -9 2 -6 -3 -10 3 -10 16 0 17 -3 19 -14 10 -12 -10 -13 -8 -9 10 5 17
3 21 -8 17 -9 -3 -26 5 -40 20 -22 23 -22 24 -2 14 12 -7 24 -17 26 -24 4 -10
6 -10 6 -1 1 15 -45 47 -57 39 -5 -3 -9 1 -9 9 0 8 4 12 8 9 4 -2 10 0 13 4 3
5 -7 9 -22 8 -21 -1 -28 4 -30 23 -3 19 -6 21 -13 10 -7 -11 -9 -9 -9 9 0 14
-6 22 -18 22 -10 0 -24 9 -32 20 -10 14 -16 16 -22 7 -6 -9 -8 -9 -8 1 0 7 -4
11 -9 7 -5 -3 -17 5 -27 17 -9 13 -14 16 -11 7 3 -9 -1 -16 -9 -16 -8 0 -14 9
-14 19 0 10 -5 18 -11 18 -5 0 -8 -4 -5 -8 3 -5 -1 -9 -9 -9 -8 0 -13 5 -12
11 1 5 -5 11 -13 11 -8 1 -14 6 -13 13 2 7 -4 9 -15 5 -15 -6 -15 -4 -4 9 11
14 10 16 -7 11 -12 -3 -21 -1 -21 6 0 6 -9 11 -20 11 -11 0 -20 5 -20 10 0 6
-5 10 -11 10 -5 0 -7 -6 -3 -12 6 -10 4 -10 -7 0 -7 6 -33 12 -57 12 -32 0
-41 -3 -36 -12 5 -9 2 -9 -9 1 -13 11 -17 11 -17 1 0 -8 -3 -11 -6 -7 -3 3
-17 2 -31 -4 -13 -5 -22 -5 -19 0 3 5 -1 12 -10 15 -23 9 -26 8 -18 -6 4 -8 0
-7 -12 2 -14 11 -39 14 -96 12z m2402 -1562 c0 -5 -5 -10 -11 -10 -5 0 -7 5
-4 10 3 6 8 10 11 10 2 0 4 -4 4 -10z m-279 -483 c-10 -9 -11 -8 -5 6 3 10 9
15 12 12 3 -3 0 -11 -7 -18z m-2981 -1041 c0 -2 -8 -10 -17 -17 -16 -13 -17
-12 -4 4 13 16 21 21 21 13z m2115 -1025 c3 -5 2 -12 -3 -15 -5 -3 -9 1 -9 9
0 17 3 19 12 6z m-801 -467 c3 -8 2 -12 -4 -9 -6 3 -10 10 -10 16 0 14 7 11
14 -7z"/>
<path d="M602 2766 c7 -8 15 -12 17 -11 5 6 -10 25 -20 25 -5 0 -4 -6 3 -14z"/>
<path d="M3110 2525 c0 -2 6 -8 13 -14 10 -8 14 -7 14 2 0 8 -6 14 -14 14 -7
0 -13 -1 -13 -2z"/>
<path d="M4145 2449 c-4 -6 -5 -12 -2 -15 2 -3 7 2 10 11 7 17 1 20 -8 4z"/>
<path d="M1865 2334 c-18 -16 -22 -22 -9 -15 18 9 53 42 43 41 -2 -1 -17 -12
-34 -26z"/>
<path d="M1979 2173 c-13 -16 -12 -17 4 -4 9 7 17 15 17 17 0 8 -8 3 -21 -13z"/>
<path d="M3162 2086 c7 -8 15 -12 17 -11 5 6 -10 25 -20 25 -5 0 -4 -6 3 -14z"/>
<path d="M1695 1969 c-4 -6 -5 -12 -2 -15 2 -3 7 2 10 11 7 17 1 20 -8 4z"/>
<path d="M2995 1540 c3 -5 11 -10 16 -10 6 0 7 5 4 10 -3 6 -11 10 -16 10 -6
0 -7 -4 -4 -10z"/>
<path d="M4120 1520 c0 -5 5 -10 11 -10 5 0 7 5 4 10 -3 6 -8 10 -11 10 -2 0
-4 -4 -4 -10z"/>
</g>
</svg>
